<?xml version="1.0" encoding="UTF-8"?>
<svg id="_レイヤー_2" data-name="レイヤー 2" xmlns="http://www.w3.org/2000/svg" viewBox="0 0 1920 441.32">
  <defs>
    <style>
      .cls-1 {
        fill: #fff;
      }
    </style>
  </defs>
  <g>
    <path class="cls-1" d="M216.75,407.95c-23.01,0-43.96-4.56-62.84-13.65-18.89-9.09-35.2-22.23-48.93-39.4-13.74-17.17-24.3-37.68-31.68-61.55-7.39-23.86-11.07-50.56-11.07-80.09s3.77-56.14,11.33-79.84c7.55-23.69,18.2-43.95,31.93-60.78,13.73-16.82,30.3-29.7,49.7-38.63,19.4-8.93,40.95-13.39,64.64-13.39,21.63,0,40.51,4.56,56.66,13.65,16.14,9.1,29.01,19.31,38.63,30.65l-11.85,12.88c-9.96-11.67-21.98-21.12-36.06-28.33-14.08-7.21-29.87-10.82-47.39-10.82-28.51,0-53.05,7.13-73.66,21.38-20.6,14.25-36.4,34.43-47.39,60.52-10.99,26.1-16.48,57-16.48,92.71s5.49,66.79,16.48,93.23c10.99,26.45,26.61,46.96,46.87,61.55,20.26,14.6,44.3,21.89,72.11,21.89,19.57,0,37.09-3.94,52.54-11.85,15.45-7.89,30.21-19.74,44.3-35.54l11.85,12.36c-14.08,16.48-29.79,29.45-47.13,38.89-17.34,9.44-38.2,14.17-62.58,14.17Z"/>
    <path class="cls-1" d="M508.8,401.25V27.3h103.53c24.72,0,46.1,3.27,64.13,9.79,18.03,6.53,31.94,16.83,41.72,30.9,9.79,14.08,14.68,32.63,14.68,55.63s-4.89,40.52-14.68,55.63c-9.79,15.11-23.7,26.53-41.72,34.25s-39.4,11.59-64.13,11.59h-84.47v176.16h-19.06ZM527.85,208.61h77.78c34.33,0,60.69-6.95,79.06-20.86,18.37-13.91,27.56-35.28,27.56-64.13s-9.19-49.7-27.56-61.55c-18.38-11.85-44.73-17.77-79.06-17.77h-77.78v164.31ZM716.37,401.25l-109.2-181.82,21.63-2.06,109.71,183.88h-22.15Z"/>
    <path class="cls-1" d="M1354.54,401.25l-86.53-373.94h20.09l49.45,225.6c4.8,20.26,9.44,40.61,13.91,61.04,4.46,20.43,8.93,40.95,13.39,61.55h2.06c4.8-20.6,9.7-41.12,14.68-61.55,4.97-20.43,10.04-40.77,15.2-61.04l60.26-225.6h21.63l60.78,225.6c5.15,20.26,10.21,40.61,15.19,61.04,4.97,20.43,10.04,40.95,15.2,61.55h2.58c4.46-20.6,8.76-41.12,12.88-61.55,4.12-20.43,8.24-40.77,12.36-61.04l49.96-225.6h19.06l-85.5,373.94h-20.09l-71.59-266.81c-3.44-15.11-6.79-29.18-10.04-42.24-3.27-13.05-6.79-26.95-10.56-41.72h-2.06c-3.44,14.77-7.04,28.68-10.82,41.72-3.78,13.05-7.39,27.13-10.82,42.24l-70.57,266.81h-20.09Z"/>
    <path class="cls-1" d="M1829.96,407.95c-5.15,0-9.88-1.98-14.16-5.92-4.3-3.94-6.44-9.35-6.44-16.22,0-7.55,2.14-13.3,6.44-17.25,4.29-3.94,9.01-5.92,14.16-5.92,5.49,0,10.38,1.98,14.68,5.92,4.29,3.95,6.44,9.71,6.44,17.25,0,6.87-2.15,12.28-6.44,16.22-4.3,3.94-9.19,5.92-14.68,5.92Z"/>
  </g>
  <rect class="cls-1" x="933.44" y="27.3" width="182.63" height="17"/>
  <rect class="cls-1" x="934.64" y="193.16" width="152.37" height="17.58"/>
  <rect class="cls-1" x="934.64" y="384.25" width="187.09" height="17"/>
</svg>